<svg width="169" height="29" viewBox="0 0 169 29" fill="none" xmlns="http://www.w3.org/2000/svg">
<path d="M31.302 0.0610526L29.7238 20.6205C29.7238 20.6205 29.1565 24.6805 33.7061 26.1191L52.6643 26.3061C52.6643 26.3061 56.4575 26.0542 58.3522 20.9334L60.3742 0.125921L50.2603 0L48.4891 20.4336C48.4891 20.4336 47.5398 23.0588 46.2124 23.0588C44.885 23.0588 40.3972 22.9329 40.3972 22.9329C40.3972 22.9329 39.1315 22.4941 38.8807 21.0593C39.3862 14.0803 39.8917 7.105 40.3972 0.125921L31.302 0.0610526Z" fill="#F2B11B"/>
<path d="M90.701 9.74928V5.31151C90.6393 2.25125 86.657 0.125854 86.657 0.125854H63.9711L61.3818 26.3709L83.8786 26.4968C93.6105 23.7456 88.8063 13.1224 88.8063 13.1224C90.4502 11.6839 90.701 9.74928 90.701 9.74928ZM79.6533 22.0056C79.5722 22.7459 78.8931 23.3106 78.0827 23.3106H72.472C71.5343 23.3106 70.8012 22.5627 70.9015 21.7041C71.106 19.9374 71.3105 18.1707 71.515 16.4078C71.5999 15.6676 72.2829 15.1066 73.0933 15.1105L78.677 15.1372C79.6108 15.141 80.3324 15.8851 80.2398 16.736C80.043 18.4913 79.8462 20.2465 79.6533 22.0056ZM81.3588 10.8826C81.2778 11.6228 80.5987 12.1876 79.7883 12.1876H74.1776C73.2399 12.1876 72.5068 11.4397 72.6071 10.5811C72.8116 8.81441 73.0161 7.0477 73.2206 5.2848C73.3055 4.54454 73.9885 3.98362 74.7989 3.98743L80.3826 4.01415C81.3164 4.01796 82.038 4.76204 81.9454 5.61296C81.7486 7.36822 81.5556 9.12349 81.3588 10.8826Z" fill="#F2B11B"/>
<path d="M119.708 0.999756H100.56C97.9709 1.49962 95.5052 5.55962 95.5052 5.55962L94.1777 23.055C95.4434 26.3671 98.0944 26.9929 98.0944 26.9929L117.053 26.9319C120.908 26.3709 122.802 21.4333 122.802 21.4333L124.13 5.18568C123.435 2.43831 119.708 0.999756 119.708 0.999756ZM113.769 21.1853C113.769 21.1853 113.514 23.1542 112.221 23.3107C110.925 23.4671 104.133 23.3412 104.133 23.3412C104.133 23.3412 102.902 23.1237 102.902 21.4677C102.902 19.8116 103.724 5.71989 103.724 5.71989C103.724 5.71989 104.103 4.55226 104.863 4.35383L113.877 4.26989L104.693 13.2675L109.98 13.9963L105.523 19.9948L114.213 13.4965L113.769 21.1853ZM114.305 11.5619H111.681L114.24 8.90607L114.301 8.87555V11.5619H114.305Z" fill="#F2B11B"/>
<path d="M127.989 5.68557L126.283 22.807C126.283 22.807 128.56 26.9929 130.011 26.9929C131.466 26.9929 149.725 26.9319 149.725 26.9319L152.508 25.3712C152.508 25.3712 154.468 28.6223 158.13 28.9314C161.796 29.2443 164.451 28.3704 164.451 28.3704L162.872 24.1845L169.004 21.1243L167.866 19.0637L162.116 21.502L159.021 15.6295L165.909 12.5044L164.709 10.4439L158.265 13.5041L156.621 10.379C156.621 10.379 150.489 13.63 151.061 21.0632C151.061 21.0632 149.733 22.8146 145.816 23.0627C141.9 23.3107 136.906 23.1886 136.906 23.1886C136.906 23.1886 135.39 22.6277 135.201 21.0021L136.59 5.62833C136.59 5.62833 137.285 4.06768 138.296 4.00281C139.307 3.93794 145.689 3.87689 145.689 3.87689C145.689 3.87689 147.144 4.56373 147.144 5.81531C147.144 7.06689 146.006 21.876 146.006 21.876C146.006 21.876 149.166 21.6241 149.988 20.5023L150.555 15.4425C150.555 15.4425 151.504 12.5693 156.177 9.57004L156.494 4.75833C156.494 4.75833 155.105 2.32004 152.955 1.1982L133.048 0.885308C133.044 0.87386 128.683 2.68636 127.989 5.68557Z" fill="#F2B11B"/>
<path d="M2.56996 0.14502H27.7641V5.76949C27.7641 5.76949 25.5298 12.5998 20.6446 14.0612C15.7593 15.5227 9.48107 15.6028 9.39618 23.0169H24.6886C24.6886 23.0169 24.6886 26.7258 24.6886 26.5579C24.6886 26.39 0 26.5579 0 26.5579V19.1858C0 19.1858 2.14935 13.3553 13.0196 11.4359C13.0196 11.4359 17.2758 9.85239 18.2869 7.31107V3.6441H2.65485C2.65485 3.6441 2.6973 0.14502 2.56996 0.14502Z" fill="#F2B11B"/>
</svg>
